<svg xmlns="http://www.w3.org/2000/svg" viewBox="0 0 32 32" xml:space="preserve"><path d="M29 2.5a.5.5 0 1 1-1 0 .5.5 0 0 1 1 0zM26.5 2a.5.5 0 1 0 0 1 .5.5 0 0 0 0-1zm-2 0a.5.5 0 1 0 0 1 .5.5 0 0 0 0-1zM10 14.4H4v-.8h6v.8zm4-3H4v-.8h10v.8zm0-3H4v-.8h10v.8zm17 23H1v-.8h30v.8zm0-3H1v-.8h30v.8zm0-3H1v-.8h30v.8zm0-3H1a.4.4 0 0 1-.4-.4V1C.6.8.8.6 1 .6h30c.2 0 .4.2.4.4v21c0 .2-.2.4-.4.4zm-29.6-.8h29.2V4.4H1.4v17.2zm0-18h29.2V1.4H1.4v2.2zM24 15.4a4.4 4.4 0 1 1 0-8.8 4.4 4.4 0 0 1 0 8.8zm-1.5-1a3.6 3.6 0 0 0 4.8-5l-3 1.9-1.8 3zm-1.8-5a3.6 3.6 0 0 0 1.2 4.6l1.6-2.9-2.8-1.6zM21 9l2.9 1.7 3-1.7a3.6 3.6 0 0 0-6 0z"/><path style="fill:none" d="M0 0h32v32H0z"/></svg>