<svg height="800" width="800" xmlns="http://www.w3.org/2000/svg" viewBox="0 0 512 512" xml:space="preserve"><path d="M410.1 82.2c-14.8 13.1-33 27.3-50.8 30.9-32.8 6.6-68.2-8.7-95.3-4.6l-5.2.9c-4.6-1.2-9.5-2.2-14.7-3-3.7-.6-7.4-.8-11.1-.8-10.7 0-21.4 1.8-32 3.4a207 207 0 0 1-31 3.2 74 74 0 0 1-15-1.4 62.3 62.3 0 0 1-20.8-9.2 175.4 175.4 0 0 1-21-16.4 33.3 33.3 0 0 0-21.8-8.4c-6 0-12 1.6-17.5 4-4.8 2.2-9.5 5-14 8.5A133 133 0 0 0 37.5 111a198.4 198.4 0 0 0-26.3 41.6C7.8 159.9 5 167 3.2 174c-2 7-3.2 13.6-3.2 20 0 3.5.3 6.8 1.1 10 .9 3.3 2.2 6.5 4.2 9.4.6 1 1.3 1.6 2.1 2.3.1 0 4.4 3.5 9 8 2.4 2.2 4.8 4.7 6.8 7 2 2.4 3.6 4.7 4.1 6 2.7 5.5 9.4 19.1 18.3 34.3a335.8 335.8 0 0 0 23.2 34.5 26.2 26.2 0 0 0 37.8 36l.8-.7a26.2 26.2 0 0 0 40.7 31.4l4.3-3.9a26.2 26.2 0 0 0 39.8 33.2l6.5-5.9a26.2 26.2 0 0 0 39.4 33.7l10.6-9 2.9 1.3 7.2 4.2a53 53 0 0 0 11.2 5c4 1.3 8 2 12 2a32.7 32.7 0 0 0 24.7-11.2c4-4.4 6.5-9.5 7.8-14.8a35 35 0 0 0 46.3-26.2 35.1 35.1 0 0 0 33.3-11.1 34.8 34.8 0 0 0 8.4-18.2l3 .1a43.2 43.2 0 0 0 30.9-13.4 47.3 47.3 0 0 0 11-37c20.1-22.5 30.8-59.9 35.5-69.7 5.3-11.3 25.4-27.4 25.4-27.4 21.8-31.4-58.8-156.7-98.2-121.7zm15 234.2a18.8 18.8 0 0 1-11 12.3 22.7 22.7 0 0 1-8.6 1.8c-1.8 0-3.4-.3-4.8-.8h-.2l-29.9-28.9a10.5 10.5 0 0 0-14.6 15l24.2 23.4.2.6a14.3 14.3 0 0 1-2 15.8 13.8 13.8 0 0 1-10.6 4.7 14 14 0 0 1-9.4-3.5l-.6-.6-.3-.4-26.2-27.3a10.5 10.5 0 1 0-15.1 14.5l22.2 23.2.1.2a14.1 14.1 0 0 1-1.5 16.8 14.4 14.4 0 0 1-20 1.2l-.4-.4-8-6.5-13.3-14a10.5 10.5 0 0 0-15.3 14.3l12.6 13.4a14.2 14.2 0 0 1-1.6 16.5 12.1 12.1 0 0 1-4.2 3.2c-1.4.6-2.9 1-4.7 1-1.7 0-3.6-.3-5.8-1-2.1-.7-4.4-1.7-6.8-3.1l-3.8-2.2a26.2 26.2 0 0 0-34.9-39l2-1.8a26.2 26.2 0 1 0-34.8-39.2l-6.4 5.8a26.2 26.2 0 0 0-39.4-33.7l-8.5 7.7a26.2 26.2 0 0 0-41.4-30.2l-18 16c-2.3-2.8-4.5-5.9-6.8-9a426 426 0 0 1-31.2-54.5c-1-2-2-3.8-3.3-5.6-2.1-3-4.5-5.9-7-8.5a136.6 136.6 0 0 0-14-13l-.5-1.6c-.3-1.3-.6-3-.6-5 0-3.3.6-7.5 1.8-12.2 2-8.3 6-18 11.2-27.8a167.7 167.7 0 0 1 29.3-40A77.7 77.7 0 0 1 79 101.7c2.5-1.3 4.8-2.4 6.9-3 2-.6 4-1 5.5-1 1.5.1 2.8.3 4 .8 1.3.5 2.5 1.2 3.9 2.4 7.2 6.4 15 12.8 23.6 18.3 8.6 5.5 17.8 10 28 12.1 6.4 1.3 12.8 1.8 19.1 1.8 12 0 23.5-1.7 34.2-3.4l7.9-1.2c-8 5.5-15.8 12-24 19.7-23.5 22-43.8 48.7-55 60.9-11.2 12.1 9.7 33.2 42.9 23.6 33.2-9.7 47.6-34.5 47.6-34.5l41.7-15 41.4 9.5L406.8 283l17.3 16.7.4.3c.7.6 1.2 1.4 1.7 2.6.4 1.2.7 2.8.7 4.8 0 2.7-.6 6-1.8 9.1z" style="fill:#000"/></svg>