<svg width="800" height="800" viewBox="0 0 32 32" fill="none" xmlns="http://www.w3.org/2000/svg"><g clip-path="url(#a)"><path d="M1 10V2c0-.6.4-1 1-1h28c.6 0 1 .4 1 1v16M21 31l-3-1v-5h4m0-4h-4m13 9c0 .6-.4 1-1 1h-4a1 1 0 0 1-1-1v-8c0-.6.4-1 1-1h4c.6 0 1 .4 1 1v8Zm-16 0c0 .6-.4 1-1 1H2a1 1 0 0 1-1-1V14c0-.6.4-1 1-1h12c.6 0 1 .4 1 1v16Z" stroke="#000" stroke-width="2" stroke-linecap="round" stroke-linejoin="round"/></g><defs><clipPath id="a"><path fill="#fff" d="M0 0h32v32H0z"/></clipPath></defs></svg>