<svg xmlns="http://www.w3.org/2000/svg" xmlns:xlink="http://www.w3.org/1999/xlink" viewBox="0,0,256,256" width="200px" height="200px"><g fill="none" fill-rule="nonzero" stroke="none" stroke-width="1" stroke-linecap="none" stroke-linejoin="miter" stroke-miterlimit="10" stroke-dasharray="" stroke-dashoffset="0" font-family="none" font-weight="none" font-size="none" text-anchor="none" style="mix-blend-mode: normal"><g transform="scale(2.56,2.56)"><circle cx="13" cy="29" r="2" fill-opacity="0" fill="#ffffff" stroke="none" stroke-linecap="butt"></circle><circle cx="77" cy="13" r="1" fill-opacity="0" fill="#ffffff" stroke="none" stroke-linecap="butt"></circle><circle cx="50" cy="50" r="37" fill-opacity="0" fill="#ffffff" stroke="none" stroke-linecap="butt"></circle><circle cx="83" cy="15" r="4" fill-opacity="0" fill="#ffffff" stroke="none" stroke-linecap="butt"></circle><circle cx="87" cy="24" r="2" fill-opacity="0" fill="#ffffff" stroke="none" stroke-linecap="butt"></circle><circle cx="81" cy="76" r="2" fill-opacity="0" fill="#ffffff" stroke="none" stroke-linecap="butt"></circle><circle cx="15" cy="63" r="4" fill-opacity="0" fill="#ffffff" stroke="none" stroke-linecap="butt"></circle><circle cx="25" cy="87" r="2" fill-opacity="0" fill="#ffffff" stroke="none" stroke-linecap="butt"></circle><circle cx="18.5" cy="53.5" r="2.5" fill-opacity="0" fill="#ffffff" stroke="none" stroke-linecap="butt"></circle><circle cx="21" cy="67" r="1" fill-opacity="0" fill="#ffffff" stroke="none" stroke-linecap="butt"></circle><circle cx="80" cy="34" r="1" fill-opacity="0" fill="#ffffff" stroke="none" stroke-linecap="butt"></circle><path d="M72.5,42.5h-15v-15h13c1.105,0 2,0.895 2,2z" fill="#000000" stroke="none" stroke-linecap="butt"></path><path d="M42.5,72.4h-13c-1.105,0 -2,-0.895 -2,-2v-13h15z" fill="#000000" stroke="none" stroke-linecap="butt"></path><rect x="42.5" y="42.5" width="15" height="15" fill="#f0f0f0" stroke="none" stroke-linecap="butt"></rect><path d="M42.5,57.5h-14.8v-13c0,-1.105 0.895,-2 2,-2h12.8z" fill-opacity="0" fill="#ffffff" stroke="none" stroke-linecap="butt"></path><path d="M55.5,72.5h-13v-15h15v13c0,1.105 -0.895,2 -2,2z" fill-opacity="0" fill="#ffffff" stroke="none" stroke-linecap="butt"></path><path d="M57.5,42.5h-14.8v-13c0,-1.105 0.895,-2 2,-2h12.8z" fill="#ffffff" stroke="none" stroke-linecap="butt"></path><path d="M70.5,57.5h-13v-15h15v13c0,1.105 -0.895,2 -2,2z" fill="#ffffff" stroke="none" stroke-linecap="butt"></path><path d="M71,28.4c0.331,0 0.6,0.269 0.6,0.6v27c0,0.331 -0.269,0.6 -0.6,0.6h-12.9c-0.827,0 -1.5,0.673 -1.5,1.5v12.9c0,0.331 -0.269,0.6 -0.6,0.6h-27c-0.331,0 -0.6,-0.269 -0.6,-0.6v-27c0,-0.331 0.269,-0.6 0.6,-0.6h12.9c0.827,0 1.5,-0.673 1.5,-1.5v-12.9c0,-0.331 0.269,-0.6 0.6,-0.6h27M71,27h-27c-1.105,0 -2,0.895 -2,2v12.9c0,0.055 -0.045,0.1 -0.1,0.1h-12.9c-1.105,0 -2,0.895 -2,2v27c0,1.105 0.895,2 2,2h27c1.105,0 2,-0.895 2,-2v-12.9c0,-0.055 0.045,-0.1 0.1,-0.1h12.9c1.105,0 2,-0.895 2,-2v-27c0,-1.105 -0.895,-2 -2,-2z" fill="#000000" stroke="none" stroke-linecap="butt"></path><path d="M57.5,57.5c-0.276,0 -0.5,-0.224 -0.5,-0.5v-22.5c0,-0.276 0.224,-0.5 0.5,-0.5c0.276,0 0.5,0.224 0.5,0.5v22.5c0,0.276 -0.224,0.5 -0.5,0.5z" fill="#000000" stroke="none" stroke-linecap="butt"></path><path d="M57.5,33c-0.276,0 -0.5,-0.224 -0.5,-0.5v-3c0,-0.276 0.224,-0.5 0.5,-0.5c0.276,0 0.5,0.224 0.5,0.5v3c0,0.276 -0.224,0.5 -0.5,0.5z" fill="#000000" stroke="none" stroke-linecap="butt"></path><path d="M60.5,43h-17.5c-0.276,0 -0.5,-0.224 -0.5,-0.5c0,-0.276 0.224,-0.5 0.5,-0.5h17.5c0.276,0 0.5,0.224 0.5,0.5c0,0.276 -0.224,0.5 -0.5,0.5z" fill="#000000" stroke="none" stroke-linecap="butt"></path><path d="M68.5,43h-6c-0.276,0 -0.5,-0.224 -0.5,-0.5c0,-0.276 0.224,-0.5 0.5,-0.5h6c0.276,0 0.5,0.224 0.5,0.5c0,0.276 -0.224,0.5 -0.5,0.5z" fill="#000000" stroke="none" stroke-linecap="butt"></path><path d="M72.5,43h-2c-0.276,0 -0.5,-0.224 -0.5,-0.5c0,-0.276 0.224,-0.5 0.5,-0.5h2c0.276,0 0.5,0.224 0.5,0.5c0,0.276 -0.224,0.5 -0.5,0.5z" fill="#000000" stroke="none" stroke-linecap="butt"></path><path d="M42.5,63c-0.276,0 -0.5,-0.224 -0.5,-0.5v-19.5c0,-0.276 0.224,-0.5 0.5,-0.5c0.276,0 0.5,0.224 0.5,0.5v19.5c0,0.276 -0.224,0.5 -0.5,0.5z" fill="#000000" stroke="none" stroke-linecap="butt"></path><path d="M42.5,73c-0.276,0 -0.5,-0.224 -0.5,-0.5v-7c0,-0.276 0.224,-0.5 0.5,-0.5c0.276,0 0.5,0.224 0.5,0.5v7c0,0.276 -0.224,0.5 -0.5,0.5z" fill="#000000" stroke="none" stroke-linecap="butt"></path><path d="M51.5,58h-14c-0.276,0 -0.5,-0.224 -0.5,-0.5c0,-0.276 0.224,-0.5 0.5,-0.5h14c0.276,0 0.5,0.224 0.5,0.5c0,0.276 -0.224,0.5 -0.5,0.5z" fill="#000000" stroke="none" stroke-linecap="butt"></path><path d="M57.5,58h-4c-0.276,0 -0.5,-0.224 -0.5,-0.5c0,-0.276 0.224,-0.5 0.5,-0.5h4c0.276,0 0.5,0.224 0.5,0.5c0,0.276 -0.224,0.5 -0.5,0.5z" fill="#000000" stroke="none" stroke-linecap="butt"></path><path d="M30.5,57.5h-3" fill="none" stroke="#000000" stroke-linecap="round"></path><path d="M35.5,58h-3c-0.276,0 -0.5,-0.224 -0.5,-0.5c0,-0.276 0.224,-0.5 0.5,-0.5h3c0.276,0 0.5,0.224 0.5,0.5c0,0.276 -0.224,0.5 -0.5,0.5z" fill="#000000" stroke="none" stroke-linecap="butt"></path></g></g></svg>