<?xml version="1.0" encoding="iso-8859-1"?><!-- Generator: Adobe Illustrator 21.0.2, SVG Export Plug-In . SVG Version: 6.00 Build 0)  --><svg xmlns="http://www.w3.org/2000/svg" xmlns:xlink="http://www.w3.org/1999/xlink" viewBox="0 0 50 50" width="200px" height="200px"><polygon style="fill:none;stroke:#000000;stroke-width:2;stroke-miterlimit:10;" points="34,19 40,21 46,19 46,11 40,9 34,11 "/><polyline style="fill:none;stroke:#000000;stroke-width:2;stroke-miterlimit:10;" points="34,12 40,14 46,12 "/><line style="fill:none;stroke:#000000;stroke-width:2;stroke-miterlimit:10;" x1="40" y1="21" x2="40" y2="14"/><polygon style="fill:none;stroke:#000000;stroke-width:2;stroke-miterlimit:10;" points="22,19 28,21 34,19 34,11 28,9 22,11 "/><polyline style="fill:none;stroke:#000000;stroke-width:2;stroke-miterlimit:10;" points="22,12 28,14 34,12 "/><line style="fill:none;stroke:#000000;stroke-width:2;stroke-miterlimit:10;" x1="28" y1="21" x2="28" y2="14"/><polygon style="fill:none;stroke:#000000;stroke-width:2;stroke-miterlimit:10;" points="16,29 22,31 28,29 28,21 22,19 16,21 "/><polyline style="fill:none;stroke:#000000;stroke-width:2;stroke-miterlimit:10;" points="16,22 22,24 28,22 "/><line style="fill:none;stroke:#000000;stroke-width:2;stroke-miterlimit:10;" x1="22" y1="31" x2="22" y2="24"/><polygon style="fill:none;stroke:#000000;stroke-width:2;stroke-miterlimit:10;" points="10,39 16,41 22,39 22,31 16,29 10,31 "/><polyline style="fill:none;stroke:#000000;stroke-width:2;stroke-miterlimit:10;" points="10,32 16,34 22,32 "/><line style="fill:none;stroke:#000000;stroke-width:2;stroke-miterlimit:10;" x1="16" y1="41" x2="16" y2="34"/><polygon style="fill:none;stroke:#000000;stroke-width:2;stroke-miterlimit:10;" points="4,29 10,31 16,29 16,21 10,19 4,21 "/><polyline style="fill:none;stroke:#000000;stroke-width:2;stroke-miterlimit:10;" points="4,22 10,24 16,22 "/><line style="fill:none;stroke:#000000;stroke-width:2;stroke-miterlimit:10;" x1="10" y1="31" x2="10" y2="24"/></svg>