<?xml version="1.0" encoding="iso-8859-1"?>
<!-- Generator: Adobe Illustrator 22.1.0, SVG Export Plug-In . SVG Version: 6.00 Build 0)  -->
<svg version="1.1" id="Layer_1" xmlns="http://www.w3.org/2000/svg" xmlns:xlink="http://www.w3.org/1999/xlink" x="0px" y="0px"
	 viewBox="0 0 50 50" style="enable-background:new 0 0 50 50;" xml:space="preserve">
<path d="M31,24c-2.757,0-5-2.243-5-5V7c0-2.757,2.243-5,5-5s5,2.243,5,5v12C36,21.757,33.757,24,31,24z"/>
<path d="M43,24h-4c-0.553,0-1-0.447-1-1v-4c0-2.757,2.243-5,5-5s5,2.243,5,5S45.757,24,43,24z"/>
<path d="M19,24H7c-2.757,0-5-2.243-5-5s2.243-5,5-5h12c2.757,0,5,2.243,5,5S21.757,24,19,24z"/>
<path d="M23,12h-4c-2.757,0-5-2.243-5-5s2.243-5,5-5s5,2.243,5,5v4C24,11.553,23.553,12,23,12z"/>
<path d="M19,48c-2.757,0-5-2.243-5-5V31c0-2.757,2.243-5,5-5s5,2.243,5,5v12C24,45.757,21.757,48,19,48z"/>
<path d="M7,36c-2.757,0-5-2.243-5-5s2.243-5,5-5h4c0.553,0,1,0.447,1,1v4C12,33.757,9.757,36,7,36z"/>
<path d="M43,36H31c-2.757,0-5-2.243-5-5s2.243-5,5-5h12c2.757,0,5,2.243,5,5S45.757,36,43,36z"/>
<path d="M31,48c-2.757,0-5-2.243-5-5v-4c0-0.553,0.447-1,1-1h4c2.757,0,5,2.243,5,5S33.757,48,31,48z"/>
</svg>