<?xml version="1.0" encoding="iso-8859-1"?>
<!-- Generator: Adobe Illustrator 22.1.0, SVG Export Plug-In . SVG Version: 6.00 Build 0)  -->
<svg version="1.1" id="Layer_1" xmlns="http://www.w3.org/2000/svg" xmlns:xlink="http://www.w3.org/1999/xlink" x="0px" y="0px"
	 viewBox="0 0 50 50" style="enable-background:new 0 0 50 50;" xml:space="preserve">
<path style="fill:none;stroke:#000000;stroke-width:2;stroke-linejoin:round;stroke-miterlimit:10;" d="M35,7c0-2.209-1.791-4-4-4
	s-4,1.791-4,4c0,1.368,0,10.631,0,12c0,2.209,1.791,4,4,4s4-1.791,4-4C35,17.631,35,8.368,35,7z"/>
<path style="fill:none;stroke:#000000;stroke-width:2;stroke-linejoin:round;stroke-miterlimit:10;" d="M47,19c0,2.209-1.791,4-4,4
	c-0.944,0-4,0-4,0s0-2.735,0-4c0-2.209,1.791-4,4-4S47,16.791,47,19z"/>
<path style="fill:none;stroke:#000000;stroke-width:2;stroke-linejoin:round;stroke-miterlimit:10;" d="M7,15c-2.209,0-4,1.791-4,4
	s1.791,4,4,4c1.368,0,10.631,0,12,0c2.209,0,4-1.791,4-4s-1.791-4-4-4C17.631,15,8.368,15,7,15z"/>
<path style="fill:none;stroke:#000000;stroke-width:2;stroke-linejoin:round;stroke-miterlimit:10;" d="M19,3c2.209,0,4,1.791,4,4
	c0,0.944,0,4,0,4s-2.735,0-4,0c-2.209,0-4-1.791-4-4S16.791,3,19,3z"/>
<path style="fill:none;stroke:#000000;stroke-width:2;stroke-linejoin:round;stroke-miterlimit:10;" d="M15,43c0,2.209,1.791,4,4,4
	s4-1.791,4-4c0-1.368,0-10.631,0-12c0-2.209-1.791-4-4-4s-4,1.791-4,4C15,32.369,15,41.632,15,43z"/>
<path style="fill:none;stroke:#000000;stroke-width:2;stroke-linejoin:round;stroke-miterlimit:10;" d="M3,31c0-2.209,1.791-4,4-4
	c0.944,0,4,0,4,0s0,2.735,0,4c0,2.209-1.791,4-4,4S3,33.209,3,31z"/>
<path style="fill:none;stroke:#000000;stroke-width:2;stroke-linejoin:round;stroke-miterlimit:10;" d="M43,35c2.209,0,4-1.791,4-4
	s-1.791-4-4-4c-1.368,0-10.631,0-12,0c-2.209,0-4,1.791-4,4s1.791,4,4,4C32.369,35,41.632,35,43,35z"/>
<path style="fill:none;stroke:#000000;stroke-width:2;stroke-linejoin:round;stroke-miterlimit:10;" d="M31,47c-2.209,0-4-1.791-4-4
	c0-0.944,0-4,0-4s2.735,0,4,0c2.209,0,4,1.791,4,4S33.209,47,31,47z"/>
</svg>