<?xml version="1.0" encoding="iso-8859-1"?>
<!-- Generator: Adobe Illustrator 24.1.2, SVG Export Plug-In . SVG Version: 6.00 Build 0)  -->
<svg version="1.1" xmlns="http://www.w3.org/2000/svg" xmlns:xlink="http://www.w3.org/1999/xlink" x="0px" y="0px"
	 viewBox="0 0 50 50" style="enable-background:new 0 0 50 50;" xml:space="preserve">
<g id="Layer_10" style="display:none;">
	<g style="display:inline;opacity:0.05;">
		<g>
			<circle style="fill:#FFFFFF;" cx="25" cy="25" r="21.5"/>
			<path d="M25,4c11.579,0,21,9.421,21,21s-9.421,21-21,21S4,36.579,4,25S13.421,4,25,4 M25,3C12.85,3,3,12.85,3,25s9.85,22,22,22
				s22-9.85,22-22S37.15,3,25,3L25,3z"/>
		</g>
		<g>
			<rect x="5.5" y="5.5" style="fill:#FFFFFF;" width="39" height="39"/>
			<path d="M44,6v38H6V6H44 M45,5H5v40h40V5L45,5z"/>
		</g>
	</g>
</g>
<g id="filled">
</g>
<g id="outlined">
</g>
<g id="rounded">
</g>
<g id="two_x5F_tone">
</g>
<g id="sharp">
</g>
<g id="win10">
</g>
<g id="ios_x5F_out">
</g>
<g id="ios_x5F_filled">
	<path d="M44.62,13.13c-0.23-0.21-0.52-0.33-0.83-0.33c-0.02,0-0.05,0.01-0.08,0.01l-29.86,1.92c-0.63,0.04-1.13,0.58-1.13,1.21
		v28.75c0,0.34,0.14,0.65,0.38,0.88c0.25,0.23,0.57,0.35,0.91,0.33l29.86-1.93C44.51,43.93,45,43.4,45,42.76V14.02
		C45,13.68,44.87,13.36,44.62,13.13z M38.11,20.92c-0.6,0.19-0.79,0.2-0.79,0.2v17.24c-1.02,0.55-1.86,0.81-2.74,0.81
		c-1.07,0-1.68-0.24-2.5-1.5c-1.74-2.69-7.41-11.81-7.41-11.81v11.45l2.23,0.47c0,0-0.06,1.3-2.01,1.45
		c-1.71,0.13-5.44,0.32-5.44,0.32c0-0.47,0.1-1.12,0.84-1.31c0.35-0.09,1.4-0.37,1.4-0.37V22.42h-2.24c0-1.03,0.3-1.83,1.38-1.91
		l5.79-0.33l7.73,11.92V21.49l-2.24-0.19c0-0.93,0.9-1.5,1.67-1.58l5.04-0.28C38.82,20.09,38.79,20.7,38.11,20.92z"/>
	<path d="M4.98,8.54l5.74,5.74v29.54L5.6,37.66c-0.41-0.58-0.62-1.25-0.62-1.96V8.54z"/>
	<path d="M42.72,10.91l-29.06,1.83c-0.99,0.07-1.95-0.3-2.65-0.99L6.24,6.97l27.19-1.89c0.81-0.07,1.62,0.17,2.28,0.66L42.72,10.91z
		"/>
</g>
<g id="color">
</g>
</svg>