<svg id="visual" viewBox="0 0 1920 1080" width="1920" height="1080" xmlns="http://www.w3.org/2000/svg" xmlns:xlink="http://www.w3.org/1999/xlink" version="1.1"><g stroke-width="1" stroke-linejoin="bevel"><path d="M860.3 516L1035.7 398L837.3 335Z" fill="#a0a1e2" stroke="#a0a1e2"></path><path d="M860.3 516L1070.7 512L1035.7 398Z" fill="#848dec" stroke="#848dec"></path><path d="M837.3 335L656 351L860.3 516Z" fill="#cccccc" stroke="#cccccc"></path><path d="M1096.7 177L860.3 150L837.3 335Z" fill="#9397e7" stroke="#9397e7"></path><path d="M837.3 335L607 168L656 351Z" fill="#848dec" stroke="#848dec"></path><path d="M1274 371L1096.7 177L1035.7 398Z" fill="#acacdd" stroke="#acacdd"></path><path d="M1035.7 398L1096.7 177L837.3 335Z" fill="#848dec" stroke="#848dec"></path><path d="M643 685L852.3 714L860.3 516Z" fill="#0066ff" stroke="#0066ff"></path><path d="M860.3 516L1027.7 739L1070.7 512Z" fill="#acacdd" stroke="#acacdd"></path><path d="M656 351L627 508L860.3 516Z" fill="#0066ff" stroke="#0066ff"></path><path d="M852.3 714L1027.7 739L860.3 516Z" fill="#436ffa" stroke="#436ffa"></path><path d="M1291 557L1274 371L1070.7 512Z" fill="#436ffa" stroke="#436ffa"></path><path d="M1070.7 512L1274 371L1035.7 398Z" fill="#9397e7" stroke="#9397e7"></path><path d="M627 508L643 685L860.3 516Z" fill="#7383f1" stroke="#7383f1"></path><path d="M852.3 714L835.3 872L1027.7 739Z" fill="#cccccc" stroke="#cccccc"></path><path d="M1273 703L1291 557L1070.7 512Z" fill="#cccccc" stroke="#cccccc"></path><path d="M860.3 150L607 168L837.3 335Z" fill="#9397e7" stroke="#9397e7"></path><path d="M401.7 387L452.7 570L627 508Z" fill="#b8b6d7" stroke="#b8b6d7"></path><path d="M1067.7 0L828.3 0L860.3 150Z" fill="#0066ff" stroke="#0066ff"></path><path d="M860.3 150L660 0L607 168Z" fill="#9397e7" stroke="#9397e7"></path><path d="M1240 0L1067.7 0L1096.7 177Z" fill="#acacdd" stroke="#acacdd"></path><path d="M1096.7 177L1067.7 0L860.3 150Z" fill="#c2c1d2" stroke="#c2c1d2"></path><path d="M1027.7 739L1273 703L1070.7 512Z" fill="#b8b6d7" stroke="#b8b6d7"></path><path d="M643 685L835.3 872L852.3 714Z" fill="#436ffa" stroke="#436ffa"></path><path d="M1027.7 739L1250 890L1273 703Z" fill="#436ffa" stroke="#436ffa"></path><path d="M1485.3 321L1309 158L1274 371Z" fill="#848dec" stroke="#848dec"></path><path d="M1274 371L1309 158L1096.7 177Z" fill="#a0a1e2" stroke="#a0a1e2"></path><path d="M828.3 0L660 0L860.3 150Z" fill="#c2c1d2" stroke="#c2c1d2"></path><path d="M401.7 387L627 508L656 351Z" fill="#7383f1" stroke="#7383f1"></path><path d="M627 508L452.7 570L643 685Z" fill="#848dec" stroke="#848dec"></path><path d="M643 685L611 882L835.3 872Z" fill="#c2c1d2" stroke="#c2c1d2"></path><path d="M465.7 166L656 351L607 168Z" fill="#a0a1e2" stroke="#a0a1e2"></path><path d="M835.3 872L1077.7 905L1027.7 739Z" fill="#848dec" stroke="#848dec"></path><path d="M428.7 0L465.7 166L607 168Z" fill="#acacdd" stroke="#acacdd"></path><path d="M465.7 166L401.7 387L656 351Z" fill="#c2c1d2" stroke="#c2c1d2"></path><path d="M1309 158L1240 0L1096.7 177Z" fill="#5f79f6" stroke="#5f79f6"></path><path d="M461.7 876L611 882L643 685Z" fill="#cccccc" stroke="#cccccc"></path><path d="M835.3 872L878.3 1080L1077.7 905Z" fill="#c2c1d2" stroke="#c2c1d2"></path><path d="M1273 703L1466.3 554L1291 557Z" fill="#5f79f6" stroke="#5f79f6"></path><path d="M1291 557L1466.3 554L1274 371Z" fill="#c2c1d2" stroke="#c2c1d2"></path><path d="M1518.3 704L1466.3 554L1273 703Z" fill="#0066ff" stroke="#0066ff"></path><path d="M1466.3 554L1485.3 321L1274 371Z" fill="#b8b6d7" stroke="#b8b6d7"></path><path d="M1309 158L1523.3 0L1240 0Z" fill="#0066ff" stroke="#0066ff"></path><path d="M1077.7 905L1250 890L1027.7 739Z" fill="#848dec" stroke="#848dec"></path><path d="M214.3 563L401.7 682L452.7 570Z" fill="#436ffa" stroke="#436ffa"></path><path d="M452.7 570L401.7 682L643 685Z" fill="#b8b6d7" stroke="#b8b6d7"></path><path d="M1485.3 321L1474.3 183L1309 158Z" fill="#cccccc" stroke="#cccccc"></path><path d="M660 0L428.7 0L607 168Z" fill="#436ffa" stroke="#436ffa"></path><path d="M186.3 140L209.3 371L401.7 387Z" fill="#c2c1d2" stroke="#c2c1d2"></path><path d="M401.7 682L461.7 876L643 685Z" fill="#848dec" stroke="#848dec"></path><path d="M603 1080L878.3 1080L835.3 872Z" fill="#c2c1d2" stroke="#c2c1d2"></path><path d="M1529.3 904L1518.3 704L1273 703Z" fill="#0066ff" stroke="#0066ff"></path><path d="M1466.3 554L1721.7 513L1485.3 321Z" fill="#acacdd" stroke="#acacdd"></path><path d="M1712.7 175L1523.3 0L1474.3 183Z" fill="#5f79f6" stroke="#5f79f6"></path><path d="M603 1080L835.3 872L611 882Z" fill="#b8b6d7" stroke="#b8b6d7"></path><path d="M1077.7 905L1275 1080L1250 890Z" fill="#cccccc" stroke="#cccccc"></path><path d="M878.3 1080L1051.7 1080L1077.7 905Z" fill="#7383f1" stroke="#7383f1"></path><path d="M1250 890L1529.3 904L1273 703Z" fill="#acacdd" stroke="#acacdd"></path><path d="M186.3 140L401.7 387L465.7 166Z" fill="#0066ff" stroke="#0066ff"></path><path d="M401.7 387L214.3 563L452.7 570Z" fill="#b8b6d7" stroke="#b8b6d7"></path><path d="M401.7 682L206.3 738L461.7 876Z" fill="#a0a1e2" stroke="#a0a1e2"></path><path d="M209.3 371L214.3 563L401.7 387Z" fill="#9397e7" stroke="#9397e7"></path><path d="M1712.7 175L1474.3 183L1485.3 321Z" fill="#9397e7" stroke="#9397e7"></path><path d="M1474.3 183L1523.3 0L1309 158Z" fill="#7383f1" stroke="#7383f1"></path><path d="M412.7 1080L603 1080L461.7 876Z" fill="#cccccc" stroke="#cccccc"></path><path d="M461.7 876L603 1080L611 882Z" fill="#cccccc" stroke="#cccccc"></path><path d="M1051.7 1080L1275 1080L1077.7 905Z" fill="#b8b6d7" stroke="#b8b6d7"></path><path d="M1275 1080L1529.3 904L1250 890Z" fill="#7383f1" stroke="#7383f1"></path><path d="M1518.3 704L1721.7 513L1466.3 554Z" fill="#436ffa" stroke="#436ffa"></path><path d="M0 710L206.3 738L214.3 563Z" fill="#c2c1d2" stroke="#c2c1d2"></path><path d="M214.3 563L206.3 738L401.7 682Z" fill="#848dec" stroke="#848dec"></path><path d="M428.7 0L186.3 140L465.7 166Z" fill="#848dec" stroke="#848dec"></path><path d="M209.3 371L0 500L214.3 563Z" fill="#7383f1" stroke="#7383f1"></path><path d="M1744.7 757L1721.7 513L1518.3 704Z" fill="#c2c1d2" stroke="#c2c1d2"></path><path d="M1721.7 513L1735.7 396L1485.3 321Z" fill="#a0a1e2" stroke="#a0a1e2"></path><path d="M1735.7 396L1712.7 175L1485.3 321Z" fill="#a0a1e2" stroke="#a0a1e2"></path><path d="M428.7 0L200.3 0L186.3 140Z" fill="#c2c1d2" stroke="#c2c1d2"></path><path d="M195.3 885L412.7 1080L461.7 876Z" fill="#9397e7" stroke="#9397e7"></path><path d="M0 710L195.3 885L206.3 738Z" fill="#b8b6d7" stroke="#b8b6d7"></path><path d="M206.3 738L195.3 885L461.7 876Z" fill="#9397e7" stroke="#9397e7"></path><path d="M1275 1080L1504.3 1080L1529.3 904Z" fill="#9397e7" stroke="#9397e7"></path><path d="M1529.3 904L1744.7 757L1518.3 704Z" fill="#9397e7" stroke="#9397e7"></path><path d="M1714.7 915L1744.7 757L1529.3 904Z" fill="#436ffa" stroke="#436ffa"></path><path d="M1920 578L1920 359L1735.7 396Z" fill="#0066ff" stroke="#0066ff"></path><path d="M1920 0L1715.7 0L1712.7 175Z" fill="#a0a1e2" stroke="#a0a1e2"></path><path d="M1712.7 175L1715.7 0L1523.3 0Z" fill="#5f79f6" stroke="#5f79f6"></path><path d="M0 174L209.3 371L186.3 140Z" fill="#7383f1" stroke="#7383f1"></path><path d="M0 174L0 394L209.3 371Z" fill="#b8b6d7" stroke="#b8b6d7"></path><path d="M0 394L0 500L209.3 371Z" fill="#848dec" stroke="#848dec"></path><path d="M1717.7 1080L1714.7 915L1529.3 904Z" fill="#c2c1d2" stroke="#c2c1d2"></path><path d="M195.3 885L243.3 1080L412.7 1080Z" fill="#9397e7" stroke="#9397e7"></path><path d="M0 939L243.3 1080L195.3 885Z" fill="#7383f1" stroke="#7383f1"></path><path d="M0 0L0 174L186.3 140Z" fill="#9397e7" stroke="#9397e7"></path><path d="M0 500L0 710L214.3 563Z" fill="#0066ff" stroke="#0066ff"></path><path d="M1920 578L1735.7 396L1721.7 513Z" fill="#848dec" stroke="#848dec"></path><path d="M1735.7 396L1920 210L1712.7 175Z" fill="#0066ff" stroke="#0066ff"></path><path d="M1920 578L1721.7 513L1744.7 757Z" fill="#9397e7" stroke="#9397e7"></path><path d="M200.3 0L0 0L186.3 140Z" fill="#7383f1" stroke="#7383f1"></path><path d="M1920 705L1920 578L1744.7 757Z" fill="#5f79f6" stroke="#5f79f6"></path><path d="M1920 359L1920 210L1735.7 396Z" fill="#848dec" stroke="#848dec"></path><path d="M1504.3 1080L1717.7 1080L1529.3 904Z" fill="#5f79f6" stroke="#5f79f6"></path><path d="M1920 871L1920 705L1744.7 757Z" fill="#acacdd" stroke="#acacdd"></path><path d="M1920 871L1744.7 757L1714.7 915Z" fill="#848dec" stroke="#848dec"></path><path d="M0 710L0 939L195.3 885Z" fill="#848dec" stroke="#848dec"></path><path d="M1920 210L1920 0L1712.7 175Z" fill="#9397e7" stroke="#9397e7"></path><path d="M1920 1080L1920 871L1714.7 915Z" fill="#b8b6d7" stroke="#b8b6d7"></path><path d="M0 939L0 1080L243.3 1080Z" fill="#7383f1" stroke="#7383f1"></path><path d="M1717.7 1080L1920 1080L1714.7 915Z" fill="#0066ff" stroke="#0066ff"></path></g></svg>