<svg xmlns="http://www.w3.org/2000/svg" xmlns:xlink="http://www.w3.org/1999/xlink" width="648" zoomAndPan="magnify" viewBox="0 0 486 484.499986" height="646" preserveAspectRatio="xMidYMid meet" version="1.0"><defs><g/><clipPath id="d70469a9e0"><path d="M 95.773438 215.902344 L 401.71875 215.902344 L 401.71875 277.324219 L 95.773438 277.324219 Z M 95.773438 215.902344 " clip-rule="nonzero"/></clipPath></defs><g fill="#231f20" fill-opacity="1"><g transform="translate(78.247298, 338.105433)"><g><path d="M 18.546875 0 L 18.546875 -193.65625 L 101.1875 -193.65625 C 110.457031 -193.65625 118.957031 -191.789062 126.6875 -188.0625 C 134.414062 -184.332031 141.097656 -179.332031 146.734375 -173.0625 C 152.367188 -166.789062 156.734375 -159.742188 159.828125 -151.921875 C 162.921875 -144.097656 164.46875 -136.097656 164.46875 -127.921875 C 164.46875 -116.828125 161.875 -106.28125 156.6875 -96.28125 C 151.507812 -86.28125 144.328125 -78.140625 135.140625 -71.859375 C 125.960938 -65.585938 115.097656 -62.453125 102.546875 -62.453125 L 63.28125 -62.453125 L 63.28125 0 Z M 63.28125 -101.46875 L 99.828125 -101.46875 C 103.285156 -101.46875 106.46875 -102.46875 109.375 -104.46875 C 112.28125 -106.46875 114.640625 -109.46875 116.453125 -113.46875 C 118.273438 -117.46875 119.1875 -122.375 119.1875 -128.1875 C 119.1875 -134.1875 118.140625 -139.140625 116.046875 -143.046875 C 113.960938 -146.960938 111.328125 -149.828125 108.140625 -151.640625 C 104.960938 -153.460938 101.644531 -154.375 98.1875 -154.375 L 63.28125 -154.375 Z M 63.28125 -101.46875 "/></g></g></g><g fill="#231f20" fill-opacity="1"><g transform="translate(239.985802, 338.105433)"><g><path d="M 134.734375 -136.921875 C 134.191406 -137.828125 132.28125 -139.234375 129 -141.140625 C 125.726562 -143.054688 121.640625 -145.101562 116.734375 -147.28125 C 111.828125 -149.46875 106.460938 -151.378906 100.640625 -153.015625 C 94.828125 -154.648438 89.007812 -155.46875 83.1875 -155.46875 C 75.550781 -155.46875 69.640625 -154.148438 65.453125 -151.515625 C 61.273438 -148.878906 59.1875 -144.832031 59.1875 -139.375 C 59.1875 -135.007812 60.773438 -131.550781 63.953125 -129 C 67.140625 -126.457031 71.734375 -124.234375 77.734375 -122.328125 C 83.734375 -120.421875 91.097656 -118.191406 99.828125 -115.640625 C 112.191406 -112.367188 122.921875 -108.414062 132.015625 -103.78125 C 141.109375 -99.144531 148.0625 -93.1875 152.875 -85.90625 C 157.695312 -78.632812 160.109375 -69 160.109375 -57 C 160.109375 -46.09375 158.109375 -36.863281 154.109375 -29.3125 C 150.109375 -21.769531 144.695312 -15.679688 137.875 -11.046875 C 131.050781 -6.410156 123.273438 -3.046875 114.546875 -0.953125 C 105.828125 1.140625 96.828125 2.1875 87.546875 2.1875 C 78.097656 2.1875 68.414062 1.234375 58.5 -0.671875 C 48.59375 -2.585938 39.09375 -5.316406 30 -8.859375 C 20.90625 -12.410156 12.539062 -16.726562 4.90625 -21.8125 L 24.546875 -60.828125 C 25.273438 -59.910156 27.640625 -58.222656 31.640625 -55.765625 C 35.640625 -53.316406 40.59375 -50.773438 46.5 -48.140625 C 52.414062 -45.503906 59.007812 -43.1875 66.28125 -41.1875 C 73.550781 -39.1875 80.914062 -38.1875 88.375 -38.1875 C 96.375 -38.1875 102.328125 -39.457031 106.234375 -42 C 110.140625 -44.550781 112.09375 -48.097656 112.09375 -52.640625 C 112.09375 -57.546875 110.046875 -61.363281 105.953125 -64.09375 C 101.867188 -66.820312 96.328125 -69.273438 89.328125 -71.453125 C 82.328125 -73.640625 74.28125 -76.097656 65.1875 -78.828125 C 53.363281 -82.460938 43.585938 -86.550781 35.859375 -91.09375 C 28.140625 -95.644531 22.414062 -101.191406 18.6875 -107.734375 C 14.957031 -114.285156 13.09375 -122.46875 13.09375 -132.28125 C 13.09375 -145.914062 16.316406 -157.414062 22.765625 -166.78125 C 29.222656 -176.144531 37.90625 -183.234375 48.8125 -188.046875 C 59.726562 -192.867188 71.640625 -195.28125 84.546875 -195.28125 C 93.640625 -195.28125 102.414062 -194.191406 110.875 -192.015625 C 119.332031 -189.835938 127.242188 -187.109375 134.609375 -183.828125 C 141.972656 -180.554688 148.5625 -177.285156 154.375 -174.015625 Z M 134.734375 -136.921875 "/></g></g></g><g clip-path="url(#d70469a9e0)"><path fill="#fbfaf9" d="M 95.773438 215.902344 L 401.71875 215.902344 L 401.71875 277.324219 L 95.773438 277.324219 Z M 95.773438 215.902344 " fill-opacity="1" fill-rule="nonzero"/></g><g fill="#231f20" fill-opacity="1"><g transform="translate(142.189872, 240.462569)"><g><path d="M 1.671875 0 L 1.671875 -13.953125 L 7.484375 -13.953125 C 8.097656 -13.953125 8.660156 -13.820312 9.171875 -13.5625 C 9.691406 -13.3125 10.140625 -12.972656 10.515625 -12.546875 C 10.898438 -12.117188 11.195312 -11.640625 11.40625 -11.109375 C 11.613281 -10.578125 11.71875 -10.039062 11.71875 -9.5 C 11.71875 -8.738281 11.546875 -8.015625 11.203125 -7.328125 C 10.859375 -6.640625 10.378906 -6.082031 9.765625 -5.65625 C 9.148438 -5.226562 8.429688 -5.015625 7.609375 -5.015625 L 3.4375 -5.015625 L 3.4375 0 Z M 3.4375 -6.578125 L 7.515625 -6.578125 C 7.992188 -6.578125 8.410156 -6.707031 8.765625 -6.96875 C 9.128906 -7.238281 9.410156 -7.59375 9.609375 -8.03125 C 9.816406 -8.476562 9.921875 -8.96875 9.921875 -9.5 C 9.921875 -10.039062 9.800781 -10.53125 9.5625 -10.96875 C 9.332031 -11.414062 9.023438 -11.765625 8.640625 -12.015625 C 8.265625 -12.265625 7.847656 -12.390625 7.390625 -12.390625 L 3.4375 -12.390625 Z M 3.4375 -6.578125 "/></g></g></g><g fill="#231f20" fill-opacity="1"><g transform="translate(170.141328, 240.462569)"><g><path d="M 5.921875 -13.953125 L 7.40625 -13.953125 L 13.109375 0 L 11.21875 0 L 9.578125 -4.09375 L 3.71875 -4.09375 L 2.078125 0 L 0.203125 0 Z M 9.171875 -5.46875 L 6.65625 -11.90625 L 4.0625 -5.46875 Z M 9.171875 -5.46875 "/></g></g></g><g fill="#231f20" fill-opacity="1"><g transform="translate(199.152779, 240.462569)"><g><path d="M 11.734375 -12.390625 L 6.921875 -12.390625 L 6.921875 0 L 5.15625 0 L 5.15625 -12.390625 L 0.328125 -12.390625 L 0.328125 -13.953125 L 11.734375 -13.953125 Z M 11.734375 -12.390625 "/></g></g></g><g fill="#231f20" fill-opacity="1"><g transform="translate(226.927557, 240.462569)"><g><path d="M 1.671875 0 L 1.671875 -13.953125 L 7.640625 -13.953125 C 8.253906 -13.953125 8.816406 -13.820312 9.328125 -13.5625 C 9.847656 -13.3125 10.296875 -12.972656 10.671875 -12.546875 C 11.054688 -12.117188 11.351562 -11.640625 11.5625 -11.109375 C 11.769531 -10.578125 11.875 -10.039062 11.875 -9.5 C 11.875 -8.851562 11.75 -8.238281 11.5 -7.65625 C 11.257812 -7.082031 10.921875 -6.59375 10.484375 -6.1875 C 10.046875 -5.78125 9.53125 -5.5 8.9375 -5.34375 L 12.328125 0 L 10.3125 0 L 7.140625 -5.015625 L 3.4375 -5.015625 L 3.4375 0 Z M 3.4375 -6.578125 L 7.671875 -6.578125 C 8.148438 -6.578125 8.566406 -6.710938 8.921875 -6.984375 C 9.285156 -7.253906 9.566406 -7.613281 9.765625 -8.0625 C 9.972656 -8.507812 10.078125 -8.988281 10.078125 -9.5 C 10.078125 -10.019531 9.957031 -10.5 9.71875 -10.9375 C 9.488281 -11.375 9.179688 -11.722656 8.796875 -11.984375 C 8.421875 -12.253906 8.003906 -12.390625 7.546875 -12.390625 L 3.4375 -12.390625 Z M 3.4375 -6.578125 "/></g></g></g><g fill="#231f20" fill-opacity="1"><g transform="translate(255.5464, 240.462569)"><g><path d="M 1.671875 0 L 1.671875 -13.953125 L 3.4375 -13.953125 L 3.4375 0 Z M 1.671875 0 "/></g></g></g><g fill="#231f20" fill-opacity="1"><g transform="translate(276.372321, 240.462569)"><g><path d="M 0.765625 -7.078125 C 0.765625 -7.929688 0.910156 -8.765625 1.203125 -9.578125 C 1.503906 -10.398438 1.9375 -11.144531 2.5 -11.8125 C 3.070312 -12.488281 3.769531 -13.023438 4.59375 -13.421875 C 5.425781 -13.828125 6.363281 -14.03125 7.40625 -14.03125 C 8.65625 -14.03125 9.722656 -13.742188 10.609375 -13.171875 C 11.503906 -12.609375 12.164062 -11.878906 12.59375 -10.984375 L 11.203125 -10.078125 C 10.929688 -10.671875 10.582031 -11.140625 10.15625 -11.484375 C 9.726562 -11.835938 9.269531 -12.082031 8.78125 -12.21875 C 8.289062 -12.363281 7.804688 -12.4375 7.328125 -12.4375 C 6.554688 -12.4375 5.875 -12.28125 5.28125 -11.96875 C 4.6875 -11.65625 4.1875 -11.234375 3.78125 -10.703125 C 3.375 -10.179688 3.066406 -9.597656 2.859375 -8.953125 C 2.660156 -8.304688 2.5625 -7.65625 2.5625 -7 C 2.5625 -6.28125 2.679688 -5.582031 2.921875 -4.90625 C 3.160156 -4.238281 3.492188 -3.648438 3.921875 -3.140625 C 4.359375 -2.628906 4.867188 -2.222656 5.453125 -1.921875 C 6.046875 -1.617188 6.691406 -1.46875 7.390625 -1.46875 C 7.878906 -1.46875 8.378906 -1.550781 8.890625 -1.71875 C 9.398438 -1.894531 9.875 -2.160156 10.3125 -2.515625 C 10.757812 -2.878906 11.113281 -3.351562 11.375 -3.9375 L 12.859375 -3.125 C 12.566406 -2.425781 12.117188 -1.832031 11.515625 -1.34375 C 10.910156 -0.863281 10.238281 -0.5 9.5 -0.25 C 8.757812 0 8.03125 0.125 7.3125 0.125 C 6.351562 0.125 5.472656 -0.0820312 4.671875 -0.5 C 3.878906 -0.914062 3.191406 -1.46875 2.609375 -2.15625 C 2.023438 -2.84375 1.570312 -3.613281 1.25 -4.46875 C 0.925781 -5.332031 0.765625 -6.203125 0.765625 -7.078125 Z M 0.765625 -7.078125 "/></g></g></g><g fill="#231f20" fill-opacity="1"><g transform="translate(305.48192, 240.462569)"><g><path d="M 1.671875 0 L 1.671875 -13.953125 L 3.4375 -13.953125 L 3.4375 0 Z M 1.671875 0 "/></g></g></g><g fill="#231f20" fill-opacity="1"><g transform="translate(326.307842, 240.462569)"><g><path d="M 7.328125 0.09375 C 6.347656 0.09375 5.457031 -0.0976562 4.65625 -0.484375 C 3.851562 -0.878906 3.160156 -1.414062 2.578125 -2.09375 C 1.992188 -2.769531 1.546875 -3.53125 1.234375 -4.375 C 0.921875 -5.21875 0.765625 -6.085938 0.765625 -6.984375 C 0.765625 -7.910156 0.929688 -8.796875 1.265625 -9.640625 C 1.597656 -10.484375 2.0625 -11.234375 2.65625 -11.890625 C 3.257812 -12.554688 3.957031 -13.082031 4.75 -13.46875 C 5.550781 -13.851562 6.425781 -14.046875 7.375 -14.046875 C 8.351562 -14.046875 9.242188 -13.84375 10.046875 -13.4375 C 10.847656 -13.03125 11.535156 -12.488281 12.109375 -11.8125 C 12.679688 -11.132812 13.125 -10.375 13.4375 -9.53125 C 13.757812 -8.695312 13.921875 -7.835938 13.921875 -6.953125 C 13.921875 -6.023438 13.753906 -5.140625 13.421875 -4.296875 C 13.097656 -3.453125 12.632812 -2.695312 12.03125 -2.03125 C 11.4375 -1.375 10.738281 -0.851562 9.9375 -0.46875 C 9.144531 -0.09375 8.273438 0.09375 7.328125 0.09375 Z M 2.5625 -6.984375 C 2.5625 -6.273438 2.675781 -5.585938 2.90625 -4.921875 C 3.132812 -4.265625 3.457031 -3.675781 3.875 -3.15625 C 4.289062 -2.644531 4.789062 -2.238281 5.375 -1.9375 C 5.96875 -1.644531 6.625 -1.5 7.34375 -1.5 C 8.09375 -1.5 8.757812 -1.65625 9.34375 -1.96875 C 9.9375 -2.28125 10.441406 -2.695312 10.859375 -3.21875 C 11.273438 -3.75 11.585938 -4.335938 11.796875 -4.984375 C 12.015625 -5.640625 12.125 -6.304688 12.125 -6.984375 C 12.125 -7.691406 12.007812 -8.367188 11.78125 -9.015625 C 11.550781 -9.671875 11.222656 -10.257812 10.796875 -10.78125 C 10.367188 -11.300781 9.863281 -11.707031 9.28125 -12 C 8.695312 -12.289062 8.050781 -12.4375 7.34375 -12.4375 C 6.601562 -12.4375 5.9375 -12.28125 5.34375 -11.96875 C 4.757812 -11.664062 4.257812 -11.253906 3.84375 -10.734375 C 3.425781 -10.210938 3.109375 -9.625 2.890625 -8.96875 C 2.671875 -8.320312 2.5625 -7.660156 2.5625 -6.984375 Z M 2.5625 -6.984375 "/></g></g></g><g fill="#231f20" fill-opacity="1"><g transform="translate(150.142577, 266.603183)"><g><path d="M 9.875 -11.03125 C 9.707031 -11.207031 9.492188 -11.378906 9.234375 -11.546875 C 8.972656 -11.722656 8.675781 -11.878906 8.34375 -12.015625 C 8.019531 -12.148438 7.664062 -12.257812 7.28125 -12.34375 C 6.894531 -12.4375 6.492188 -12.484375 6.078125 -12.484375 C 5.003906 -12.484375 4.207031 -12.28125 3.6875 -11.875 C 3.175781 -11.46875 2.921875 -10.910156 2.921875 -10.203125 C 2.921875 -9.703125 3.050781 -9.304688 3.3125 -9.015625 C 3.582031 -8.734375 3.988281 -8.5 4.53125 -8.3125 C 5.070312 -8.132812 5.765625 -7.945312 6.609375 -7.75 C 7.578125 -7.539062 8.414062 -7.285156 9.125 -6.984375 C 9.832031 -6.679688 10.375 -6.273438 10.75 -5.765625 C 11.132812 -5.265625 11.328125 -4.59375 11.328125 -3.75 C 11.328125 -3.082031 11.195312 -2.503906 10.9375 -2.015625 C 10.6875 -1.523438 10.328125 -1.117188 9.859375 -0.796875 C 9.398438 -0.472656 8.863281 -0.234375 8.25 -0.078125 C 7.632812 0.0664062 6.96875 0.140625 6.25 0.140625 C 5.539062 0.140625 4.847656 0.0664062 4.171875 -0.078125 C 3.503906 -0.234375 2.867188 -0.453125 2.265625 -0.734375 C 1.660156 -1.023438 1.09375 -1.390625 0.5625 -1.828125 L 1.421875 -3.328125 C 1.628906 -3.097656 1.898438 -2.875 2.234375 -2.65625 C 2.566406 -2.445312 2.945312 -2.25 3.375 -2.0625 C 3.800781 -1.875 4.257812 -1.722656 4.75 -1.609375 C 5.25 -1.503906 5.765625 -1.453125 6.296875 -1.453125 C 7.285156 -1.453125 8.054688 -1.628906 8.609375 -1.984375 C 9.160156 -2.347656 9.4375 -2.878906 9.4375 -3.578125 C 9.4375 -4.097656 9.28125 -4.515625 8.96875 -4.828125 C 8.664062 -5.148438 8.210938 -5.414062 7.609375 -5.625 C 7.003906 -5.832031 6.269531 -6.039062 5.40625 -6.25 C 4.457031 -6.488281 3.660156 -6.75 3.015625 -7.03125 C 2.378906 -7.3125 1.898438 -7.679688 1.578125 -8.140625 C 1.253906 -8.597656 1.09375 -9.191406 1.09375 -9.921875 C 1.09375 -10.816406 1.304688 -11.570312 1.734375 -12.1875 C 2.171875 -12.800781 2.769531 -13.265625 3.53125 -13.578125 C 4.289062 -13.890625 5.148438 -14.046875 6.109375 -14.046875 C 6.742188 -14.046875 7.332031 -13.976562 7.875 -13.84375 C 8.414062 -13.71875 8.921875 -13.535156 9.390625 -13.296875 C 9.867188 -13.066406 10.300781 -12.789062 10.6875 -12.46875 Z M 9.875 -11.03125 "/></g></g></g><g fill="#231f20" fill-opacity="1"><g transform="translate(177.819209, 266.603183)"><g><path d="M 5.921875 -13.953125 L 7.40625 -13.953125 L 13.109375 0 L 11.21875 0 L 9.578125 -4.09375 L 3.71875 -4.09375 L 2.078125 0 L 0.203125 0 Z M 9.171875 -5.46875 L 6.65625 -11.90625 L 4.0625 -5.46875 Z M 9.171875 -5.46875 "/></g></g></g><g fill="#231f20" fill-opacity="1"><g transform="translate(206.830661, 266.603183)"><g><path d="M 1.671875 0 L 1.671875 -13.953125 L 3.4375 -13.953125 L 3.4375 -1.578125 L 11.21875 -1.578125 L 11.21875 0 Z M 1.671875 0 "/></g></g></g><g fill="#231f20" fill-opacity="1"><g transform="translate(234.016559, 266.603183)"><g><path d="M 5.921875 -13.953125 L 7.40625 -13.953125 L 13.109375 0 L 11.21875 0 L 9.578125 -4.09375 L 3.71875 -4.09375 L 2.078125 0 L 0.203125 0 Z M 9.171875 -5.46875 L 6.65625 -11.90625 L 4.0625 -5.46875 Z M 9.171875 -5.46875 "/></g></g></g><g fill="#231f20" fill-opacity="1"><g transform="translate(263.028011, 266.603183)"><g><path d="M 0.625 -1.375 L 9.625 -12.390625 L 0.8125 -12.390625 L 0.8125 -13.953125 L 11.703125 -13.953125 L 11.703125 -12.578125 L 2.84375 -1.578125 L 11.703125 -1.578125 L 11.703125 0 L 0.625 0 Z M 0.625 -1.375 "/></g></g></g><g fill="#231f20" fill-opacity="1"><g transform="translate(291.136506, 266.603183)"><g><path d="M 5.921875 -13.953125 L 7.40625 -13.953125 L 13.109375 0 L 11.21875 0 L 9.578125 -4.09375 L 3.71875 -4.09375 L 2.078125 0 L 0.203125 0 Z M 9.171875 -5.46875 L 6.65625 -11.90625 L 4.0625 -5.46875 Z M 9.171875 -5.46875 "/></g></g></g><g fill="#231f20" fill-opacity="1"><g transform="translate(320.147958, 266.603183)"><g><path d="M 1.671875 0 L 1.671875 -13.953125 L 7.640625 -13.953125 C 8.253906 -13.953125 8.816406 -13.820312 9.328125 -13.5625 C 9.847656 -13.3125 10.296875 -12.972656 10.671875 -12.546875 C 11.054688 -12.117188 11.351562 -11.640625 11.5625 -11.109375 C 11.769531 -10.578125 11.875 -10.039062 11.875 -9.5 C 11.875 -8.851562 11.75 -8.238281 11.5 -7.65625 C 11.257812 -7.082031 10.921875 -6.59375 10.484375 -6.1875 C 10.046875 -5.78125 9.53125 -5.5 8.9375 -5.34375 L 12.328125 0 L 10.3125 0 L 7.140625 -5.015625 L 3.4375 -5.015625 L 3.4375 0 Z M 3.4375 -6.578125 L 7.671875 -6.578125 C 8.148438 -6.578125 8.566406 -6.710938 8.921875 -6.984375 C 9.285156 -7.253906 9.566406 -7.613281 9.765625 -8.0625 C 9.972656 -8.507812 10.078125 -8.988281 10.078125 -9.5 C 10.078125 -10.019531 9.957031 -10.5 9.71875 -10.9375 C 9.488281 -11.375 9.179688 -11.722656 8.796875 -11.984375 C 8.421875 -12.253906 8.003906 -12.390625 7.546875 -12.390625 L 3.4375 -12.390625 Z M 3.4375 -6.578125 "/></g></g></g></svg>