<!DOCTYPE svg PUBLIC "-//W3C//DTD SVG 1.1//EN" "http://www.w3.org/Graphics/SVG/1.1/DTD/svg11.dtd">

<!-- Uploaded to: SVG Repo, www.svgrepo.com, Transformed by: SVG Repo Mixer Tools -->
<svg width="800px" height="800px" viewBox="0 0 256 256" version="1.1" xmlns="http://www.w3.org/2000/svg" xmlns:xlink="http://www.w3.org/1999/xlink" preserveAspectRatio="xMidYMid" fill="#000000" stroke="#000000">

<g id="SVGRepo_bgCarrier" stroke-width="0"/>

<g id="SVGRepo_tracerCarrier" stroke-linecap="round" stroke-linejoin="round"/>

<g id="SVGRepo_iconCarrier"> <g> <path d="M256.000405,0 L256.000405,170.666936 L170.666936,170.666936 L170.666936,255.996382 L0.00201096905,255.996382 L0.002,170.666 L0,170.666936 L0,85.3314569 L85.3334681,85.3314569 L85.3334681,0 L256.000405,0 Z" fill="#eee8cf"> </path> <polygon fill="#fafafadf" points="0.00201096905 255.996382 85.3354791 255.996382 85.3354791 170.662915 0.00201096905 170.662915"> </polygon> <polygon fill="#eee8cf" points="170.666936 170.666936 256.000405 170.666936 256.000405 85.3314569 170.666936 85.3314569"> </polygon> <polygon fill="#eee8cf" points="85.3334681 85.3334679 170.666936 85.3334679 170.666936 0 85.3334681 0"> </polygon> <polygon fill="#eee8cf" points="85.3334681 170.664925 170.666936 170.664925 170.666936 85.3314569 85.3334681 85.3314569"> </polygon> <polygon fill="#fafafadf" points="170.666936 85.3334679 256.000405 85.3334679 256.000405 0 170.666936 0"> </polygon> </g> </g>

</svg>